<?xml version="1.0" standalone="no"?>
<!DOCTYPE svg PUBLIC "-//W3C//DTD SVG 20010904//EN"
 "http://www.w3.org/TR/2001/REC-SVG-20010904/DTD/svg10.dtd">
<svg version="1.0" xmlns="http://www.w3.org/2000/svg"
 width="512.000000pt" height="512.000000pt" viewBox="0 0 512.000000 512.000000"
 preserveAspectRatio="xMidYMid meet">

<g transform="translate(0.000000,512.000000) scale(0.100000,-0.100000)"
fill="#000000" stroke="none">
<path d="M3510 4844 c-595 -56 -1143 -177 -1949 -431 -138 -43 -146 -45 -172
-29 -88 52 -332 -31 -456 -154 -109 -109 -166 -250 -166 -405 0 -84 42 -396
64 -475 5 -19 29 -132 54 -250 106 -511 390 -1632 659 -2600 60 -217 74 -240
144 -240 47 0 2484 346 2534 360 44 13 78 52 78 92 0 15 -20 69 -45 118 -25
49 -45 93 -45 96 0 4 48 4 108 0 96 -6 110 -5 139 13 52 33 54 63 16 246 -225
1066 -394 2072 -527 3135 -24 195 -47 384 -51 419 -6 52 -13 70 -35 93 -27 27
-33 28 -117 27 -48 -1 -153 -8 -233 -15z m195 -226 c3 -18 17 -127 30 -243 76
-629 200 -1447 325 -2140 51 -285 206 -1062 216 -1090 5 -13 -11 -15 -115 -15
l-121 0 0 88 c0 92 -8 112 -44 112 -43 0 -56 -27 -56 -122 l0 -88 -79 0 c-43
0 -99 -3 -125 -6 l-46 -7 0 89 c0 100 -14 134 -55 134 -41 0 -55 -34 -55 -137
0 -90 -1 -93 -22 -94 -13 0 -54 -3 -91 -8 -37 -4 -69 -6 -71 -4 -2 2 5 45 16
96 21 105 18 134 -16 143 -50 12 -62 -7 -87 -135 l-23 -120 -38 -5 c-21 -3
-56 -9 -77 -12 l-39 -5 19 73 c30 117 23 158 -26 158 -32 0 -50 -27 -69 -105
-9 -38 -21 -86 -26 -106 l-10 -36 -85 -12 c-48 -8 -89 -11 -92 -7 -3 3 1 42
11 88 14 73 14 84 1 105 -9 13 -23 23 -33 23 -38 0 -52 -24 -73 -130 -11 -58
-24 -108 -27 -111 -4 -4 -31 -10 -59 -14 l-53 -7 0 88 c0 67 -4 92 -17 106
-20 22 -41 23 -65 1 -15 -13 -18 -32 -18 -114 0 -84 -2 -98 -17 -103 -32 -9
-154 -28 -158 -24 -2 2 14 73 35 158 35 141 38 157 24 178 -8 13 -25 22 -39
22 -36 0 -48 -27 -95 -216 l-42 -172 -76 -12 c-43 -7 -79 -12 -82 -12 -3 0
-11 25 -19 54 l-14 53 112 222 c61 123 111 231 111 241 0 26 -20 42 -52 42
-26 0 -34 -11 -120 -182 l-91 -183 -23 80 c-12 44 -23 87 -23 96 -1 9 47 100
105 202 84 148 105 192 100 212 -7 28 -45 42 -71 28 -9 -5 -52 -72 -95 -148
-47 -83 -81 -133 -84 -125 -3 8 -14 52 -25 98 l-20 82 100 175 c104 181 111
203 68 226 -36 19 -57 0 -125 -121 -37 -66 -71 -120 -74 -120 -4 0 -15 35 -24
78 l-16 77 55 137 c65 162 69 194 25 210 -34 12 -58 -10 -86 -82 -15 -39 -31
-67 -35 -63 -14 15 -179 917 -179 979 0 8 40 -1 118 -27 133 -45 162 -43 162
11 0 39 -16 48 -172 99 l-126 42 -7 50 c-4 28 -5 52 -4 54 2 1 53 -7 112 -18
79 -16 112 -18 125 -11 20 13 28 62 13 77 -6 6 -68 23 -138 37 l-128 26 -7 50
c-9 58 -56 529 -60 593 l-2 43 59 19 c472 151 937 276 1265 342 214 43 274 52
268 41 -3 -5 -31 -51 -62 -103 -64 -105 -69 -139 -24 -155 38 -13 53 2 144
156 43 72 82 131 88 133 6 2 28 6 48 8 l37 6 -76 -154 c-75 -152 -76 -154 -59
-180 13 -19 24 -25 44 -23 24 3 37 22 118 183 71 138 97 181 115 187 20 6 154
19 266 27 18 1 23 -6 28 -31z m-2387 -448 c21 -18 25 -34 38 -172 8 -84 19
-191 24 -238 5 -47 10 -90 10 -97 0 -8 -25 -11 -83 -11 -94 1 -175 -19 -254
-61 l-51 -28 -13 81 c-8 45 -14 126 -14 181 0 83 4 109 23 149 45 98 112 159
215 197 65 23 76 23 105 -1z m64 -626 c19 -6 21 -13 43 -189 24 -183 92 -623
111 -717 5 -26 3 -28 -25 -28 -59 0 -140 -40 -205 -101 l-63 -58 -21 92 c-12
51 -42 180 -68 287 -25 107 -66 290 -90 405 l-43 210 22 19 c32 27 137 75 188
86 41 8 112 5 151 -6z m207 -1201 c32 -165 128 -607 155 -711 l13 -53 -51 -26
c-63 -32 -122 -71 -164 -111 l-31 -29 -17 55 c-8 31 -61 234 -116 451 l-100
394 39 55 c60 88 140 140 214 142 26 0 27 -1 58 -167z m250 -1074 c30 -110 75
-273 101 -362 l47 -162 -38 -22 c-68 -38 -112 -77 -155 -136 l-43 -58 -20 69
c-12 38 -24 83 -27 100 -9 46 27 113 87 159 42 32 49 42 47 67 -6 63 -63 59
-135 -9 -25 -25 -47 -44 -48 -42 -1 1 -11 36 -23 79 l-20 76 33 50 c19 28 58
65 89 86 42 28 56 43 56 61 0 28 -24 55 -49 55 -21 0 -97 -49 -130 -84 -14
-14 -28 -26 -32 -26 -4 0 -13 24 -19 53 -14 62 -4 91 52 144 36 34 145 103
163 103 6 0 35 -90 64 -201z m2157 -366 c4 -16 15 -45 26 -65 l18 -38 -22 -5
c-35 -7 -2131 -305 -2150 -305 -30 0 -21 19 37 76 60 61 141 104 195 104 20 0
166 24 325 54 627 118 1076 179 1460 199 33 2 70 4 82 5 17 2 24 -5 29 -25z"/>
<path d="M2196 4237 c-22 -16 -18 -65 5 -80 47 -29 101 32 64 73 -21 23 -44
25 -69 7z"/>
<path d="M1706 3884 c-31 -30 -9 -84 34 -84 40 0 66 60 38 88 -17 17 -54 15
-72 -4z"/>
<path d="M1964 3765 c-20 -31 -10 -63 23 -71 35 -9 57 7 61 42 7 52 -55 74
-84 29z"/>
<path d="M2830 3624 c-63 -12 -157 -48 -204 -78 -133 -85 -189 -234 -157 -416
l12 -67 -30 -31 c-26 -26 -31 -38 -31 -81 0 -63 32 -149 68 -184 29 -28 78
-50 92 -42 5 3 16 -16 24 -43 7 -27 23 -67 35 -90 25 -48 27 -101 6 -142 -8
-15 -47 -52 -87 -81 -187 -134 -268 -203 -268 -227 0 -34 114 -267 134 -275
22 -9 1232 193 1253 208 12 9 21 49 34 146 22 164 20 168 -78 194 -83 22 -213
69 -271 97 -33 17 -48 34 -69 76 -28 58 -29 74 -10 171 11 60 14 65 44 73 42
11 69 47 82 109 30 140 -3 249 -76 249 -19 0 -23 7 -28 48 -23 186 -93 305
-214 360 -45 21 -74 26 -146 28 -49 1 -101 0 -115 -2z m227 -122 c51 -27 94
-77 116 -139 22 -60 40 -207 32 -252 -11 -60 43 -93 85 -51 18 18 21 18 27 5
3 -9 2 -40 -3 -68 -8 -44 -12 -52 -29 -50 -63 8 -74 -11 -100 -156 -43 -246
-197 -361 -352 -265 -62 39 -105 104 -143 219 -27 82 -35 96 -57 101 -15 4
-35 2 -46 -6 -22 -13 -30 -5 -54 55 -20 52 -17 60 24 60 58 0 67 28 35 113
-19 52 -25 87 -26 157 -1 82 2 95 29 144 38 68 104 114 205 141 95 26 197 22
257 -8z m168 -1001 c18 -35 66 -74 117 -95 35 -15 36 -16 26 -50 -15 -47 -4
-84 28 -92 31 -8 60 16 69 57 8 34 11 34 90 11 l60 -19 -3 -44 c-5 -87 -12
-109 -35 -114 -26 -6 -683 -115 -693 -115 -3 0 -4 10 0 23 7 31 -19 67 -49 67
-28 0 -50 -28 -60 -77 -7 -34 -14 -38 -87 -49 l-48 -6 0 34 c0 39 -15 58 -46
58 -27 0 -44 -20 -64 -74 -25 -67 -48 -60 -92 27 l-37 75 22 19 c12 11 69 55
127 98 136 101 158 122 182 170 11 22 21 41 23 43 1 1 23 -10 49 -24 32 -18
68 -28 110 -31 91 -8 153 15 224 83 31 29 60 53 64 54 4 0 14 -13 23 -29z"/>
<path d="M3640 1895 c-47 -7 -133 -16 -193 -20 -111 -7 -137 -18 -137 -55 0
-10 8 -26 17 -36 15 -15 31 -16 133 -10 140 8 320 34 337 48 16 13 17 60 1 76
-14 14 -44 14 -158 -3z"/>
<path d="M3060 1823 c-191 -20 -576 -105 -604 -132 -25 -25 -15 -68 18 -77 13
-3 93 10 177 30 176 40 379 76 433 76 44 0 90 38 80 67 -9 24 -34 43 -53 41
-9 0 -32 -3 -51 -5z"/>
</g>
</svg>
